<svg width="20" height="21" fill="none" xmlns="http://www.w3.org/2000/svg"><path fill-rule="evenodd" clip-rule="evenodd" d="M13.467 11.29l-1.594 1.594c-.74-.22-2.118-.72-2.992-1.594-.874-.874-1.374-2.253-1.594-2.992L8.88 6.704a.999.999 0 000-1.414l-4-4a.999.999 0 00-1.414 0L.755 4.002c-.38.38-.594.902-.586 1.435.023 1.424.4 6.37 4.298 10.268 3.898 3.898 8.844 4.274 10.269 4.298h.028c.528 0 1.027-.208 1.405-.586l2.712-2.712a.999.999 0 000-1.414l-4-4a.999.999 0 00-1.414 0zm-7.586 3c-3.366-3.366-3.692-7.65-3.712-8.874l2.005-2.005L6.76 5.997 5.467 7.29a1 1 0 00-.272.912c.024.115.61 2.842 2.27 4.502 1.66 1.66 4.388 2.247 4.503 2.271a.991.991 0 00.912-.27l1.294-1.294 2.586 2.586-2.006 2.005c-1.248-.02-5.518-.356-8.873-3.712z" fill="#C2C2C2"/></svg>