<svg width="144" height="34" fill="none" xmlns="http://www.w3.org/2000/svg"><path d="M65.012 24.431h-1.449l-2.317-4.838h-7.755l-2.294 4.838h-1.449l7.62-16.007 7.644 16.007zm-4.39-6.153l-3.253-6.845-3.253 6.845h6.506zm11.03-9.675c3.432 0 5.482 1.672 5.482 4.614 0 2.876-2.05 4.616-5.482 4.616h-2.764v6.599h-1.38V8.602h4.144zm4.033 4.614c0-2.162-1.336-3.366-4.033-3.366h-2.764v6.71h2.764c2.697 0 4.033-1.18 4.033-3.344zm14.684-4.614c3.097 0 4.724 1.895 4.724 3.946a3.65 3.65 0 01-1.916 3.477 3.968 3.968 0 012.963 4.058c0 2.898-2.34 4.348-5.86 4.348h-4.747V8.602h4.836zm3.343 4.146c0-1.56-1.137-2.875-3.142-2.875h-3.655v5.729h3.655c2.005 0 3.142-1.226 3.142-2.854zm1.046 7.268c0-1.828-1.248-3.187-3.854-3.187h-3.989v6.33h3.966c2.608 0 3.877-1.292 3.877-3.143zm4.236-11.414h1.382v10.032c0 3.121 1.938 4.66 4.813 4.66 2.896 0 4.836-1.539 4.836-4.66V8.603h1.38v9.964c0 3.857-2.561 6.043-6.216 6.043-3.654 0-6.195-2.186-6.195-6.043V8.603zm18.138 8.672v7.157h-1.382V8.602h4.19c3.253 0 5.146 1.629 5.146 4.348 0 2.43-1.581 4.035-4.299 4.302l5.993 7.18h-1.715l-5.883-7.157h-2.05zm6.507-4.325c0-1.962-1.227-3.055-3.743-3.055h-2.764v6.109h2.764c2.516 0 3.743-1.115 3.743-3.054zm11.631-4.526a8.084 8.084 0 017.474 4.995 8.1 8.1 0 01-1.753 8.82 8.085 8.085 0 01-12.445-1.226 8.094 8.094 0 01-1.363-4.496 7.96 7.96 0 012.33-5.76 7.969 7.969 0 015.757-2.333zm0 1.316a6.772 6.772 0 00-6.339 4.106 6.778 6.778 0 008.793 8.944 6.777 6.777 0 004.208-6.273 6.591 6.591 0 00-1.886-4.81 6.573 6.573 0 00-4.776-1.967zM0 0v33.035h33.019V0H0zm9.147 17.207h6.672v14.446H1.815l7.332-14.446zM1.38 29.46V17.207H7.6L1.38 29.46zm14.44-13.634H9.85l5.97-11.764v11.764zM17.2 4.062l5.971 11.764H17.2V4.062zm0 13.145h6.672l7.333 14.446H17.199V17.207zm8.22 0h6.22V29.46l-6.22-12.252zm6.22-1.381h-6.92L17.386 1.38h14.251v14.445zM15.631 1.38L8.3 15.826H1.38V1.38h14.252z" fill="#fff"/></svg>