<svg width="126" height="30" fill="none" xmlns="http://www.w3.org/2000/svg"><path d="M57.14 21.473h-1.273l-2.036-4.252h-6.816l-2.017 4.252h-1.273l6.698-14.069 6.718 14.07zm-3.858-5.409l-2.86-6.015-2.858 6.015h5.718zm9.694-8.503c3.017 0 4.819 1.47 4.819 4.056 0 2.528-1.802 4.056-4.819 4.056h-2.429v5.8h-1.213V7.561h3.642zm3.545 4.056c0-1.9-1.174-2.959-3.545-2.959h-2.429v5.898h2.43c2.37 0 3.544-1.038 3.544-2.94zm12.906-4.056c2.723 0 4.153 1.665 4.153 3.469a3.208 3.208 0 01-1.685 3.056 3.487 3.487 0 012.605 3.566c0 2.547-2.057 3.821-5.15 3.821h-4.173V7.561h4.25zm2.938 3.644c0-1.372-.999-2.527-2.76-2.527h-3.213v5.035h3.212c1.762 0 2.761-1.077 2.761-2.508zm.92 6.388c0-1.606-1.096-2.801-3.388-2.801h-3.505v5.564h3.485c2.293 0 3.408-1.136 3.408-2.763zm3.721-10.032h1.215v8.817c0 2.744 1.703 4.096 4.23 4.096 2.546 0 4.25-1.352 4.25-4.096V7.561h1.213v8.758c0 3.39-2.25 5.311-5.463 5.311-3.211 0-5.445-1.921-5.445-5.31V7.56zm15.942 7.622v6.29h-1.214V7.561h3.682c2.859 0 4.523 1.431 4.523 3.821 0 2.136-1.39 3.547-3.778 3.781l5.267 6.31h-1.507l-5.17-6.29h-1.803zm5.719-3.8c0-1.725-1.078-2.686-3.29-2.686h-2.429v5.369h2.429c2.212 0 3.29-.98 3.29-2.684zM0 0v29.035h29.02V0H0zm8.04 15.124h5.864V27.82H1.594L8.04 15.124zM1.212 25.892V15.124H6.68L1.213 25.892zm12.69-11.982H8.657l5.248-10.34v10.34zm1.214-10.34l5.248 10.34h-5.248V3.57zm0 11.554h5.864l6.444 12.697H15.117V15.124zm7.225 0h5.465v10.768l-5.465-10.768zm5.465-1.214h-6.082L15.282 1.214h12.525V13.91zM13.74 1.214L7.295 13.91H1.213V1.214H13.74zm105.15 6.19a7.103 7.103 0 016.568 4.39 7.114 7.114 0 01-5.18 9.699 7.107 7.107 0 01-8.496-6.976 7.002 7.002 0 017.108-7.113zm0 1.157a5.953 5.953 0 00-5.571 3.608 5.964 5.964 0 001.227 6.526 5.953 5.953 0 0010.199-4.178 5.787 5.787 0 00-5.855-5.956z" fill="#000"/></svg>