<svg width="37" height="39" fill="none" xmlns="http://www.w3.org/2000/svg"><path d="M34.824 5.16H32.78v-3.1C32.78.884 31.866 0 30.653 0H2.176C.966 0 .02.905.02 2.06v7.53c0 1.196.967 2.17 2.156 2.17h28.477c1.173 0 2.127-.974 2.127-2.17V6.6h2.044c.415 0 .716.262.716.624v7.966c0 .37-.308.65-.716.65H18.252a2.153 2.153 0 00-2.152 2.149V19.2h-1.068a.72.72 0 00-.68.484l-1.813 5.232a.72.72 0 00-.04.236V38.28c0 .398.323.72.72.72h7.08a.72.72 0 00.72-.72V25.152a.72.72 0 00-.036-.228l-1.746-5.232a.72.72 0 00-.683-.492H17.54v-1.211c0-.391.32-.709.712-.709h16.572c1.21 0 2.156-.918 2.156-2.09V7.224c0-1.158-.947-2.064-2.156-2.064zM31.34 9.59c0 .35-.262.73-.687.73H2.176a.733.733 0 01-.716-.73V2.06c0-.365.294-.62.716-.62h28.477c.411 0 .687.249.687.62v7.53zM19.58 25.268V37.56h-5.64V25.273l1.605-4.633h2.49l1.545 4.629z" fill="#D3D3D3"/></svg>