<svg width="23" height="23" fill="none" xmlns="http://www.w3.org/2000/svg"><mask id="a" fill="#fff"><path fill-rule="evenodd" clip-rule="evenodd" d="M5.579 11.47a5.896 5.896 0 1011.792 0 5.897 5.897 0 00-11.792 0zm2.064.002a3.83 3.83 0 117.66.001 3.83 3.83 0 01-7.66-.001zM18.98 5.359a1.375 1.375 0 10-2.75 0 1.375 1.375 0 002.75 0zM19 .604A8.427 8.427 0 0016.214.07C14.985.015 14.596 0 11.48 0 8.367 0 7.967 0 6.75.069a8.36 8.36 0 00-2.785.535A5.866 5.866 0 00.606 3.961 8.396 8.396 0 00.07 6.749C.017 7.974 0 8.364 0 11.479s0 3.511.071 4.732A8.41 8.41 0 00.606 19a5.879 5.879 0 003.36 3.356 8.4 8.4 0 002.786.574c1.228.053 1.617.07 4.732.07 3.114 0 3.513 0 4.731-.07.953-.02 1.896-.2 2.788-.535a5.882 5.882 0 003.359-3.357 8.4 8.4 0 00.534-2.788c.055-1.226.071-1.616.071-4.73 0-3.116 0-3.512-.071-4.732a8.392 8.392 0 00-.537-2.827A5.873 5.873 0 0019.001.604zm1.41 17.666a3.81 3.81 0 01-2.183 2.182 6.359 6.359 0 01-2.13.396c-1.212.056-1.554.07-4.66.07-3.11 0-3.428 0-4.662-.07a6.325 6.325 0 01-2.129-.396 3.806 3.806 0 01-2.192-2.182 6.479 6.479 0 01-.397-2.128c-.055-1.212-.068-1.554-.068-4.66 0-3.108 0-3.425.068-4.661a6.423 6.423 0 01.397-2.151 3.808 3.808 0 012.192-2.184 6.39 6.39 0 012.129-.396c1.213-.055 1.553-.07 4.661-.07 3.108 0 3.427 0 4.66.07a6.328 6.328 0 012.13.396A3.815 3.815 0 0120.41 4.67c.25.68.385 1.401.397 2.128.054 1.213.069 1.553.069 4.66s0 3.441-.055 4.66h-.014a6.43 6.43 0 01-.397 2.152z"/></mask><path fill-rule="evenodd" clip-rule="evenodd" d="M5.579 11.47a5.896 5.896 0 1011.792 0 5.897 5.897 0 00-11.792 0zm2.064.002a3.83 3.83 0 117.66.001 3.83 3.83 0 01-7.66-.001zM18.98 5.359a1.375 1.375 0 10-2.75 0 1.375 1.375 0 002.75 0zM19 .604A8.427 8.427 0 0016.214.07C14.985.015 14.596 0 11.48 0 8.367 0 7.967 0 6.75.069a8.36 8.36 0 00-2.785.535A5.866 5.866 0 00.606 3.961 8.396 8.396 0 00.07 6.749C.017 7.974 0 8.364 0 11.479s0 3.511.071 4.732A8.41 8.41 0 00.606 19a5.879 5.879 0 003.36 3.356 8.4 8.4 0 002.786.574c1.228.053 1.617.07 4.732.07 3.114 0 3.513 0 4.731-.07.953-.02 1.896-.2 2.788-.535a5.882 5.882 0 003.359-3.357 8.4 8.4 0 00.534-2.788c.055-1.226.071-1.616.071-4.73 0-3.116 0-3.512-.071-4.732a8.392 8.392 0 00-.537-2.827A5.873 5.873 0 0019.001.604zm1.41 17.666a3.81 3.81 0 01-2.183 2.182 6.359 6.359 0 01-2.13.396c-1.212.056-1.554.07-4.66.07-3.11 0-3.428 0-4.662-.07a6.325 6.325 0 01-2.129-.396 3.806 3.806 0 01-2.192-2.182 6.479 6.479 0 01-.397-2.128c-.055-1.212-.068-1.554-.068-4.66 0-3.108 0-3.425.068-4.661a6.423 6.423 0 01.397-2.151 3.808 3.808 0 012.192-2.184 6.39 6.39 0 012.129-.396c1.213-.055 1.553-.07 4.661-.07 3.108 0 3.427 0 4.66.07a6.328 6.328 0 012.13.396A3.815 3.815 0 0120.41 4.67c.25.68.385 1.401.397 2.128.054 1.213.069 1.553.069 4.66s0 3.441-.055 4.66h-.014a6.43 6.43 0 01-.397 2.152z" fill="#fff"/><path d="M15.303 11.472h.4-.4zM19.002.604l.144-.373h-.003L19 .603zM16.213.07l-.018.4h.01l.008-.4zm-9.464 0l.008.4h.015l-.023-.4zM3.964.604L3.823.23 3.82.231l.144.373zM.606 3.961l-.373-.145-.002.004.375.14zM.07 6.749l.4.017v-.01l-.4-.008zm0 9.462l.4-.008v-.016l-.4.024zM.606 19l-.375.14.002.004L.606 19zm3.36 3.356l.145-.373h-.002l-.144.373zm2.786.574l.017-.4h-.004l-.013.4zm9.463 0l-.008-.4h-.015l.023.4zm2.788-.535l.14.375.005-.002-.145-.373zm3.359-3.357l.373.145.001-.004-.374-.141zm.534-2.788l-.4-.018v.01l.4.008zm0-9.462l-.4.007v.016l.4-.023zm-.537-2.827l.374-.142-.001-.003-.373.145zm-1.95 14.308l.373.145.002-.006-.375-.14zm-2.183 2.182l.139.375.004-.002-.143-.373zm-2.13.396l-.006-.4h-.013l.018.4zm-9.322 0l.022-.399H6.78l-.005.4zm-2.129-.396l-.143.374h.003l.14-.374zm-2.192-2.182l-.376.138.003.006.373-.144zm-.397-2.128l.4-.007v-.012l-.4.019zm0-9.321l.4.022v-.017l-.4-.005zm.397-2.151l-.374-.145-.002.006.376.139zm2.192-2.184l-.139-.375-.004.002.143.373zm2.129-.396l.005.4h.013l-.018-.4zm9.322 0l-.023.4h.018l.005-.4zm2.13.396l.143-.373-.004-.001-.14.374zm2.183 2.184l.376-.138-.003-.007-.373.145zm.397 2.128l-.4.006v.012l.4-.018zm.014 9.32v.4h.382l.017-.381-.4-.018zm-.014 0h-.4v.4h.4v-.4zm0 0h.4l-.8-.006.4.005zM5.179 11.47a6.296 6.296 0 006.296 6.296v-.8a5.496 5.496 0 01-5.496-5.496h-.8zm6.296 6.296a6.297 6.297 0 006.296-6.296h-.8a5.497 5.497 0 01-5.496 5.496v.8zm6.296-6.296a6.297 6.297 0 00-6.296-6.296v.8a5.497 5.497 0 015.496 5.496h.8zm-6.296-6.296a6.295 6.295 0 00-6.296 6.296h.8a5.495 5.495 0 015.496-5.496v-.8zm-3.432 6.297a3.43 3.43 0 013.432-3.43v-.8a4.23 4.23 0 00-4.232 4.23h.8zm3.432-3.43a3.428 3.428 0 013.428 3.43h.8a4.228 4.228 0 00-4.228-4.23v.8zm3.428 3.43a3.429 3.429 0 01-3.428 3.43v.8a4.229 4.229 0 004.229-4.23h-.8zm-3.428 3.43a3.43 3.43 0 01-3.432-3.43h-.8a4.23 4.23 0 004.232 4.23v-.8zm7.906-9.543c0-.98-.795-1.775-1.775-1.775v.8c.538 0 .974.436.974.975h.8zm-1.775-1.775c-.98 0-1.775.794-1.775 1.775h.8c0-.539.436-.975.975-.975v-.8zM15.83 5.359c0 .98.794 1.774 1.775 1.774v-.8a.975.975 0 01-.975-.974h-.8zm1.775 1.774c.98 0 1.774-.794 1.774-1.774h-.8a.975.975 0 01-.974.974v.8zM19.142.23a8.827 8.827 0 00-2.92-.561l-.018.8c.91.02 1.808.19 2.656.51l.282-.749zM16.23-.33c-1.236-.055-1.632-.07-4.749-.07v.8c3.112 0 3.495.015 4.714.068l.035-.799zM11.481-.4c-3.112 0-3.523 0-4.754.07l.045.798C7.977.4 8.364.4 11.482.4v-.8zm-4.74.069A8.76 8.76 0 003.823.23l.282.749a7.96 7.96 0 012.652-.51l-.016-.8zM3.82.23A6.266 6.266 0 00.233 3.816l.746.29A5.466 5.466 0 014.108.977L3.82.23zM.23 3.821a8.796 8.796 0 00-.56 2.92l.8.016c.019-.91.19-1.805.51-2.655L.23 3.82zm-.56 2.91C-.382 7.966-.4 8.36-.4 11.48h.8c0-3.113.017-3.495.071-4.714l-.8-.035zM-.4 11.48c0 3.111 0 3.52.072 4.754l.799-.047C.4 14.981.4 14.597.4 11.48h-.8zm.072 4.739a8.81 8.81 0 00.56 2.921l.748-.28a8.01 8.01 0 01-.509-2.657l-.8.016zm.56 2.925a6.279 6.279 0 003.589 3.585l.288-.746a5.479 5.479 0 01-3.13-3.128l-.746.29zM3.82 22.73a8.8 8.8 0 002.92.6l.025-.799a8 8 0 01-2.654-.547l-.291.746zm2.915.6c1.236.054 1.631.071 4.749.071v-.8c-3.112 0-3.495-.017-4.715-.07l-.034.8zm4.749.071c3.112 0 3.523 0 4.754-.07l-.046-.8c-1.204.07-1.591.07-4.708.07v.8zm4.74-.07a8.841 8.841 0 002.92-.56l-.28-.75c-.851.32-1.75.492-2.657.51l.017.8zm2.924-.561a6.283 6.283 0 003.587-3.586l-.746-.29a5.482 5.482 0 01-3.13 3.13l.29.745zm3.588-3.59c.351-.936.54-1.922.56-2.92l-.8-.017a7.998 7.998 0 01-.509 2.655l.749.282zm.56-2.91c.055-1.236.071-1.632.071-4.75h-.8c0 3.113-.016 3.495-.07 4.713l.799.036zm.071-4.75c0-3.113 0-3.52-.072-4.754l-.798.046c.07 1.207.07 1.59.07 4.708h.8zm-.071-4.738a8.789 8.789 0 00-.563-2.962l-.748.283a7.99 7.99 0 01.511 2.693l.8-.014zm-.564-2.965A6.273 6.273 0 0019.145.231l-.288.747a5.473 5.473 0 013.13 3.128l.745-.29zm-2.696 14.308a3.41 3.41 0 01-1.954 1.953l.287.747a4.21 4.21 0 002.413-2.41l-.746-.29zm-1.95 1.952a5.96 5.96 0 01-1.996.372l.011.8a6.76 6.76 0 002.264-.422l-.279-.75zm-2.009.372c-1.203.055-1.537.07-4.642.07v.8c3.11 0 3.458-.015 4.679-.071l-.037-.8zm-4.642.07c-3.111 0-3.417 0-4.639-.07l-.045.799c1.248.07 1.577.07 4.684.07v-.8zm-4.656-.07a5.925 5.925 0 01-1.994-.372l-.28.75c.725.27 1.492.412 2.264.421l.01-.8zm-1.991-.37a3.406 3.406 0 01-1.962-1.953l-.746.288a4.206 4.206 0 002.422 2.412l.286-.748zm-1.96-1.947a6.08 6.08 0 01-.372-1.997l-.8.013c.012.772.156 1.537.421 2.26l.751-.276zm-.372-2.009c-.055-1.202-.068-1.537-.068-4.641h-.8c0 3.108.013 3.457.068 4.678l.8-.037zm-.068-4.641c0-3.11 0-3.416.067-4.64l-.798-.043c-.069 1.249-.069 1.577-.069 4.683h.8zm.068-4.656c.008-.69.133-1.371.372-2.018l-.75-.277a6.823 6.823 0 00-.422 2.285l.8.01zm.37-2.012A3.408 3.408 0 014.788 2.86l-.286-.747A4.208 4.208 0 002.08 4.524l.746.289zM4.784 2.86a5.99 5.99 0 011.995-.371l-.011-.8a6.79 6.79 0 00-2.262.421l.278.75zm2.008-.372c1.204-.054 1.538-.07 4.643-.07v-.8c-3.11 0-3.458.016-4.68.071l.037.8zm4.643-.07c3.11 0 3.418 0 4.638.07l.045-.799c-1.246-.07-1.577-.07-4.683-.07v.8zm4.656.07a5.927 5.927 0 011.995.372l.279-.75a6.728 6.728 0 00-2.265-.42l-.01.8zm1.99.37a3.415 3.415 0 011.955 1.955l.746-.289a4.215 4.215 0 00-2.413-2.412l-.287.747zm1.952 1.948c.235.64.362 1.316.373 1.997l.8-.012a6.876 6.876 0 00-.422-2.26l-.75.275zm.373 2.009c.054 1.204.069 1.538.069 4.643h.8c0-3.11-.015-3.458-.07-4.68l-.799.037zm.069 4.643c0 3.108 0 3.433-.055 4.642l.8.036c.055-1.23.055-1.573.055-4.678h-.8zm.345 4.26h-.014v.8h.014v-.8zm.386.4v-.002h-.8v.002h.8zm-.8-.006a6.032 6.032 0 01-.372 2.018l.75.278a6.831 6.831 0 00.422-2.287l-.8-.01z" fill="#2D2D2D" mask="url(#a)"/></svg>