<svg width="22" height="23" fill="none" xmlns="http://www.w3.org/2000/svg"><path d="M13.68 13.08h0c-.188.295-.72.944-.878 1.132a.546.546 0 01-.35.213c-.139.017-.28-.029-.427-.105a3.807 3.807 0 00-.17-.08 7.192 7.192 0 01-2.064-1.357h0c-.83-.771-1.39-1.72-1.551-2.009h0c-.098-.176-.108-.328-.055-.466a.935.935 0 01.157-.243l5.338 2.915zm0 0c.077-.12.133-.141.174-.146.058-.007.132.013.263.063.116.044.506.235.912.439.402.201.806.409.942.48l.158.08c.068.035.125.063.176.092.085.049.117.08.13.102h0v.002a.474.474 0 01.016.103c.005.07.005.166-.005.28a3.585 3.585 0 01-.183.846c-.098.285-.393.58-.753.82-.357.238-.742.398-.976.435-.458.07-1.029.1-1.653-.107h0c-.396-.131-.9-.304-1.546-.595h0c-2.52-1.132-4.23-3.677-4.565-4.176l-.05-.075-.003-.003c-.07-.098-.341-.474-.595-.993-.257-.528-.492-1.193-.492-1.862 0-1.254.586-1.905.867-2.216l.053-.06 7.13 6.49zm-4.64-3.9h0c.063-.13.036-.244-.023-.369h0a33.214 33.214 0 01-.366-.906l-.182-.46-.3-.757c-.105-.263-.198-.343-.255-.37-.047-.024-.08-.024-.136-.023-.025 0-.055 0-.093-.002h0c-.156-.008-.335-.01-.517-.01L9.04 9.18zm0 0c-.04.082-.13.22-.252.393-.121.17-.268.364-.416.555l.668-.948zM1.7 17.132l.014-.058-.029-.053a11.583 11.583 0 01-1.443-5.625C.244 5.19 5.097.15 11.046.15c2.888.001 5.6 1.17 7.64 3.296l.109-.104-.109.104c2.041 2.126 3.165 4.952 3.164 7.96-.002 6.206-4.855 11.246-10.804 11.246h-.004s0 0 0 0c-1.807 0-3.583-.472-5.161-1.367l-.054-.03-.06.015-5.556 1.517L1.7 17.132zm9.342 3.896h.004c5.107 0 9.252-4.323 9.255-9.623 0-2.57-.96-4.987-2.706-6.806-1.747-1.82-4.072-2.823-6.545-2.824h0c-5.11 0-9.257 4.322-9.259 9.622 0 1.817.488 3.587 1.414 5.119l.184.304-.904 3.434-.066.252.25-.069 3.384-.923.276.17h0a8.976 8.976 0 004.713 1.344z" fill="#fff" stroke="#2D2D2D" stroke-width=".3"/></svg>