<svg xmlns="http://www.w3.org/2000/svg" width="23" height="23"><path d="M11.5.922C5.664.922.922 5.664.922 11.5c0 1.875.512 3.629 1.371 5.156l-1.356 4.84a.46.46 0 00.555.57l5.043-1.25a10.502 10.502 0 004.965 1.262c5.836 0 10.578-4.742 10.578-10.578C22.078 5.664 17.336.922 11.5.922zm0 .918c5.34 0 9.66 4.32 9.66 9.66s-4.32 9.66-9.66 9.66a9.605 9.605 0 01-4.71-1.226.43.43 0 00-.333-.043l-4.422 1.093 1.188-4.23a.471.471 0 00-.047-.356A9.608 9.608 0 011.84 11.5c0-5.34 4.32-9.66 9.66-9.66zM7.656 5.98c-.297 0-.715.11-1.062.48-.207.228-1.074 1.071-1.074 2.552 0 1.547 1.074 2.883 1.203 3.054-.012-.015.164.239.402.547.234.309.566.711.98 1.149.829.87 1.997 1.883 3.442 2.5.668.281 1.195.453 1.594.578.738.234 1.41.2 1.914.125.379-.059.797-.238 1.207-.5.41-.258.816-.582.992-1.074a3.78 3.78 0 00.215-.95c.011-.132.015-.25.004-.359-.008-.11.004-.195-.098-.363-.215-.352-.457-.36-.71-.485l-.942-.457c-.403-.191-.75-.359-.965-.437-.133-.047-.301-.117-.54-.09-.238.023-.472.195-.609.398-.129.196-.652.809-.808.993-.004 0 .011.004-.055-.028-.195-.097-.437-.18-.793-.367a6.589 6.589 0 01-1.289-.894v-.004c-.726-.637-1.234-1.442-1.394-1.711.007-.012-.004.004.02-.02.163-.16.312-.355.433-.496.175-.2.25-.379.336-.543.164-.328.07-.691-.024-.883.008.012-.05-.117-.117-.265-.063-.149-.14-.344-.227-.551-.175-.41-.367-.875-.48-1.149-.137-.32-.316-.55-.555-.66-.238-.113-.449-.078-.457-.082-.172-.008-.36-.008-.543-.008zm0 .918c.176 0 .352.004.496.012.153.008.145.008.114-.008-.028-.011.011-.015.097.188.114.265.305.73.477 1.144.086.207.168.403.234.555.063.152.098.238.137.32h.004c.039.079.035.028.02.055-.094.195-.11.242-.208.356-.148.171-.3.363-.382.44-.07.071-.2.18-.278.392-.078.21-.043.5.086.718.168.29.73 1.203 1.602 1.97.55.483 1.062.804 1.468 1.019.41.214.743.343.817.379.176.09.37.156.594.128a.897.897 0 00.543-.304c.164-.184.652-.742.886-1.086.012.004.008 0 .086.031.035.012.48.211.875.398.399.192.801.387.93.454.191.09.281.152.3.152a.979.979 0 010 .152 2.972 2.972 0 01-.163.715c-.051.133-.301.41-.621.61-.317.203-.704.343-.848.367-.434.062-.945.086-1.508-.09-.387-.125-.875-.281-1.504-.55-1.277-.544-2.363-1.474-3.137-2.286-.39-.41-.699-.79-.921-1.078-.22-.285-.317-.434-.395-.54v-.003c-.144-.188-1.016-1.403-1.016-2.496 0-1.157.536-1.61.829-1.922a.554.554 0 01.386-.192zm0 0" fill="#fff"/></svg>