<svg xmlns="http://www.w3.org/2000/svg" width="6" height="6"><path d="M3 .238A2.764 2.764 0 00.238 3c0 .488.137.945.36 1.344L.246 5.609c-.012.04 0 .082.027.114a.13.13 0 00.118.035l1.316-.328A2.73 2.73 0 003 5.762 2.764 2.764 0 005.762 3 2.764 2.764 0 003 .238zM3 .48A2.516 2.516 0 015.52 3 2.516 2.516 0 013 5.52c-.445 0-.863-.118-1.23-.32a.108.108 0 00-.086-.013L.53 5.473.84 4.37a.13.13 0 00-.012-.094A2.484 2.484 0 01.48 3 2.516 2.516 0 013 .48zM1.996 1.56a.39.39 0 00-.277.129c-.055.058-.278.277-.278.664 0 .402.278.75.313.796a4.037 4.037 0 00.36.441c.218.227.523.493.898.653.175.074.312.117.414.153.195.058.37.05.5.03a.86.86 0 00.316-.128c.106-.07.211-.152.258-.281.035-.094.05-.18.059-.246 0-.036.003-.067 0-.098-.004-.027 0-.05-.028-.094-.054-.09-.117-.094-.183-.125l-.246-.121a3.26 3.26 0 00-.25-.113c-.036-.012-.079-.031-.141-.024a.236.236 0 00-.16.106c-.035.05-.172.21-.211.258 0 0 .004 0-.016-.008-.05-.024-.113-.047-.207-.094a1.981 1.981 0 01-.336-.234 2.09 2.09 0 01-.363-.45c.004 0 0 .004.004-.003.043-.043.082-.094.113-.13.047-.05.067-.097.09-.14a.258.258 0 00-.008-.23.386.386 0 00-.031-.07c-.016-.04-.035-.09-.059-.145a12.081 12.081 0 00-.125-.297.318.318 0 00-.144-.176c-.063-.027-.117-.02-.121-.02-.043-.003-.09-.003-.14-.003zm0 .242h.133c.039.004.035.004.027 0-.008-.004.004-.004.024.047.03.07.082.191.125.3.023.055.047.106.062.145.016.039.028.062.035.082.012.023.012.008.008.016-.027.05-.031.062-.055.093-.039.043-.078.094-.101.114-.016.02-.05.047-.07.101a.228.228 0 00.02.188c.046.078.19.316.421.515.14.125.273.211.383.266.105.055.191.09.21.098a.265.265 0 00.157.035.238.238 0 00.14-.078V3.72a2.89 2.89 0 00.231-.281c.004 0 .004 0 .024.007.007.004.125.055.226.106.106.047.211.097.246.117.047.023.07.039.078.039v.04c-.008.046-.02.116-.043.187a.526.526 0 01-.164.16.715.715 0 01-.222.093.854.854 0 01-.391-.023 3.815 3.815 0 01-.395-.144c-.332-.141-.613-.383-.816-.594a4.717 4.717 0 01-.242-.281l-.102-.141c-.039-.05-.265-.367-.265-.652 0-.301.14-.422.215-.504a.145.145 0 01.101-.047zm0 0" fill="#fff"/></svg>