<svg width="127" height="133" fill="none" xmlns="http://www.w3.org/2000/svg"><path d="M119.169 17.597h-6.971V7.023c0-4.004-3.118-7.023-7.253-7.023H7.829C3.707 0 .478 3.085.478 7.023v25.679c0 4.082 3.298 7.403 7.351 7.403h97.116c3.999 0 7.253-3.321 7.253-7.403V22.508h6.971c1.414 0 2.441.894 2.441 2.127v27.168c0 1.263-1.049 2.216-2.441 2.216H62.652c-4.046 0-7.337 3.287-7.337 7.328v4.13h-3.642a2.455 2.455 0 00-2.32 1.652l-6.18 17.842c-.09.26-.136.53-.136.804v44.77c0 1.356 1.1 2.455 2.456 2.455h24.144a2.455 2.455 0 002.456-2.455v-44.77c0-.264-.044-.526-.127-.777l-5.953-17.843a2.455 2.455 0 00-2.33-1.678h-3.458v-4.13a2.425 2.425 0 012.427-2.418h56.517c4.122 0 7.352-3.13 7.352-7.127V24.635c0-3.946-3.23-7.037-7.352-7.037zm-11.882 15.105c0 1.198-.896 2.492-2.342 2.492H7.829c-1.323 0-2.44-1.142-2.44-2.492V7.023c0-1.243 1.003-2.112 2.44-2.112h97.116c1.401 0 2.342.849 2.342 2.112v25.679zM67.182 86.174v41.915H47.948v-41.9l5.473-15.801h8.494l5.267 15.786z" fill="#2D2D2D"/></svg>